<svg xmlns="http://www.w3.org/2000/svg" xmlns:xlink="http://www.w3.org/1999/xlink" width="1080" zoomAndPan="magnify" viewBox="0 0 810 809.999993" height="1080" preserveAspectRatio="xMidYMid meet" version="1.0"><path fill="#95dacb" d="M 246.460938 745.234375 L 577.085938 745.234375 C 638.460938 745.234375 692.453125 704.597656 709.539062 645.535156 L 720.46875 607.773438 C 734.792969 558.261719 707.878906 506.1875 659.25 489.335938 C 592.097656 466.066406 572.144531 380.570312 622.042969 329.882812 L 627.042969 324.800781 C 676.75 274.304688 660.609375 189.582031 595.835938 160.972656 L 407.339844 77.722656 C 350.625 52.675781 285.46875 55.722656 231.328125 85.953125 L 200.546875 103.136719 C 136.9375 138.652344 106.792969 213.90625 128.246094 283.628906 C 145.101562 338.402344 130.308594 398.023438 89.816406 438.511719 L 87.28125 441.042969 C 21.851562 506.472656 25.140625 613.660156 94.464844 674.9375 L 119.648438 697.199219 C 154.667969 728.152344 199.761719 745.234375 246.460938 745.234375 Z M 246.460938 745.234375 " fill-opacity="1" fill-rule="nonzero"/><path fill="#285598" d="M 717.9375 614.433594 C 653.953125 646.191406 627.347656 713.953125 622.878906 744.335938 L 646.867188 744.335938 C 700.597656 706.910156 720.328125 648.585938 723.816406 618.472656 C 724.195312 615.210938 720.882812 612.972656 717.9375 614.433594 Z M 717.9375 614.433594 " fill-opacity="1" fill-rule="nonzero"/><path fill="#ffffff" d="M 700.726562 518.289062 C 628.875 553.167969 607.78125 682.152344 606.273438 743.410156 L 638.5625 743.410156 C 713.109375 635.761719 715.394531 553.085938 706.398438 520.777344 C 705.71875 518.324219 703.015625 517.175781 700.726562 518.289062 Z M 700.726562 518.289062 " fill-opacity="1" fill-rule="nonzero"/><path fill="#285598" d="M 704.253906 521.375 C 703.960938 520.324219 702.796875 519.761719 701.695312 520.292969 C 666.625 537.320312 643.636719 577.527344 629.238281 621.648438 C 615.230469 664.578125 609.53125 710.671875 608.5625 741.183594 L 637.394531 741.183594 C 711.03125 634.378906 712.996094 552.777344 704.253906 521.375 Z M 699.753906 516.28125 C 703.234375 514.59375 707.472656 516.320312 708.546875 520.179688 C 717.769531 553.300781 715.203125 636.65625 640.394531 744.679688 L 639.730469 745.640625 L 603.988281 745.640625 L 604.042969 743.355469 C 604.804688 712.558594 610.476562 664.777344 625.003906 620.265625 C 639.492188 575.859375 662.976562 534.132812 699.753906 516.28125 Z M 699.753906 516.28125 " fill-opacity="1" fill-rule="evenodd"/><path fill="#285598" d="M 696.929688 544.820312 L 667.355469 624.703125 L 684.6875 616.78125 L 686.539062 620.835938 L 665.171875 630.601562 L 638.359375 703.03125 L 653.421875 697.035156 L 655.070312 701.179688 L 636.273438 708.65625 L 623.121094 744.183594 L 618.941406 742.636719 L 645.621094 670.574219 L 631.914062 640.023438 L 635.980469 638.199219 L 647.832031 664.609375 L 676.769531 586.433594 L 669.644531 563.15625 L 673.90625 561.851562 L 679.320312 579.542969 L 692.75 543.269531 Z M 696.929688 544.820312 " fill-opacity="1" fill-rule="evenodd"/><path fill="#fc9e19" d="M 702.394531 166.511719 L 692.839844 178.757812 C 692.257812 179.503906 691.308594 179.863281 690.378906 179.6875 L 678.570312 177.472656 C 676.027344 176.996094 674.496094 180.195312 676.457031 181.878906 L 685.738281 189.859375 C 686.417969 190.441406 686.738281 191.339844 686.582031 192.21875 L 684.253906 205.375 C 683.816406 207.847656 686.859375 209.378906 688.582031 207.554688 L 698.117188 197.441406 C 698.675781 196.847656 699.488281 196.5625 700.292969 196.671875 L 711.332031 198.175781 C 713.816406 198.515625 715.222656 195.414062 713.332031 193.761719 L 705.128906 186.597656 C 704.46875 186.019531 704.152344 185.144531 704.292969 184.28125 L 706.882812 168.476562 C 707.304688 165.890625 704.007812 164.445312 702.394531 166.511719 Z M 702.394531 166.511719 " fill-opacity="1" fill-rule="nonzero"/><path fill="#fc9e19" d="M 66.320312 297.144531 L 72.46875 305.390625 C 72.839844 305.890625 72.902344 306.550781 72.625 307.105469 L 69.097656 314.132812 C 68.335938 315.644531 70.113281 317.191406 71.542969 316.265625 L 78.316406 311.875 C 78.808594 311.554688 79.441406 311.519531 79.976562 311.777344 L 87.996094 315.636719 C 89.503906 316.363281 91.027344 314.726562 90.164062 313.308594 L 85.386719 305.46875 C 85.105469 305.007812 85.066406 304.445312 85.28125 303.957031 L 88.214844 297.285156 C 88.878906 295.785156 87.140625 294.335938 85.746094 295.222656 L 79.6875 299.082031 C 79.199219 299.394531 78.582031 299.429688 78.054688 299.183594 L 68.382812 294.679688 C 66.800781 293.941406 65.285156 295.757812 66.320312 297.144531 Z M 66.320312 297.144531 " fill-opacity="1" fill-rule="nonzero"/><path fill="#fc9e19" d="M 171.363281 219.277344 L 167.320312 213.835938 C 167.074219 213.503906 166.675781 213.347656 166.28125 213.421875 L 161.285156 214.40625 C 160.210938 214.617188 159.5625 213.199219 160.390625 212.449219 L 164.316406 208.902344 C 164.605469 208.644531 164.738281 208.246094 164.671875 207.851562 L 163.6875 202.007812 C 163.503906 200.90625 164.789062 200.226562 165.519531 201.039062 L 169.554688 205.535156 C 169.789062 205.796875 170.132812 205.921875 170.476562 205.875 L 175.144531 205.207031 C 176.195312 205.054688 176.792969 206.433594 175.992188 207.167969 L 172.519531 210.351562 C 172.242188 210.609375 172.109375 211 172.167969 211.382812 L 173.261719 218.40625 C 173.441406 219.554688 172.046875 220.199219 171.363281 219.277344 Z M 171.363281 219.277344 " fill-opacity="1" fill-rule="nonzero"/><path fill="#ffffff" d="M 220.746094 140.410156 C 220.746094 132.195312 227.402344 125.539062 235.609375 125.539062 L 609.175781 125.539062 C 617.386719 125.539062 624.042969 132.195312 624.042969 140.410156 L 624.042969 730.363281 C 624.042969 738.574219 617.386719 745.234375 609.175781 745.234375 L 235.609375 745.234375 C 227.402344 745.234375 220.746094 738.574219 220.746094 730.363281 Z M 220.746094 140.410156 " fill-opacity="1" fill-rule="nonzero"/><path fill="#285598" d="M 218.519531 140.410156 C 218.519531 130.964844 226.171875 123.308594 235.613281 123.308594 L 609.179688 123.308594 C 618.621094 123.308594 626.273438 130.964844 626.273438 140.410156 L 626.273438 730.363281 C 626.273438 739.808594 618.621094 747.464844 609.179688 747.464844 L 235.613281 747.464844 C 226.171875 747.464844 218.519531 739.808594 218.519531 730.363281 Z M 235.613281 127.765625 C 228.632812 127.765625 222.976562 133.429688 222.976562 140.410156 L 222.976562 730.363281 C 222.976562 737.34375 228.632812 743.007812 235.613281 743.007812 L 609.179688 743.007812 C 616.15625 743.007812 621.816406 737.34375 621.816406 730.363281 L 621.816406 140.410156 C 621.816406 133.429688 616.15625 127.765625 609.179688 127.765625 Z M 235.613281 127.765625 " fill-opacity="1" fill-rule="evenodd"/><path fill="#285598" d="M 220.746094 140.410156 C 220.746094 132.195312 227.402344 125.539062 235.609375 125.539062 L 609.175781 125.539062 C 617.386719 125.539062 624.042969 132.195312 624.042969 140.410156 L 624.042969 176.808594 L 220.746094 176.808594 Z M 220.746094 140.410156 " fill-opacity="1" fill-rule="nonzero"/><path fill="#ffffff" d="M 267.777344 151.539062 C 267.777344 157.691406 262.789062 162.679688 256.636719 162.679688 C 250.488281 162.679688 245.5 157.691406 245.5 151.539062 C 245.5 145.382812 250.488281 140.394531 256.636719 140.394531 C 262.789062 140.394531 267.777344 145.382812 267.777344 151.539062 Z M 267.777344 151.539062 " fill-opacity="1" fill-rule="nonzero"/><path fill="#ffffff" d="M 304.90625 151.539062 C 304.90625 157.691406 299.917969 162.679688 293.765625 162.679688 C 287.617188 162.679688 282.628906 157.691406 282.628906 151.539062 C 282.628906 145.382812 287.617188 140.394531 293.765625 140.394531 C 299.917969 140.394531 304.90625 145.382812 304.90625 151.539062 Z M 304.90625 151.539062 " fill-opacity="1" fill-rule="nonzero"/><path fill="#ffffff" d="M 267.539062 230.304688 C 267.539062 226.613281 270.53125 223.621094 274.222656 223.621094 L 575.023438 223.621094 C 578.714844 223.621094 581.710938 226.613281 581.710938 230.304688 L 581.710938 352.910156 C 581.710938 356.601562 578.714844 359.597656 575.023438 359.597656 L 274.222656 359.597656 C 270.53125 359.597656 267.539062 356.601562 267.539062 352.910156 Z M 267.539062 230.304688 " fill-opacity="1" fill-rule="nonzero"/><path fill="#95dacb" d="M 265.308594 230.304688 C 265.308594 225.382812 269.296875 221.390625 274.222656 221.390625 L 575.023438 221.390625 C 579.945312 221.390625 583.933594 225.382812 583.933594 230.304688 L 583.933594 352.910156 C 583.933594 357.832031 579.945312 361.824219 575.023438 361.824219 L 274.222656 361.824219 C 269.296875 361.824219 265.308594 357.832031 265.308594 352.910156 Z M 274.222656 225.847656 C 271.761719 225.847656 269.765625 227.84375 269.765625 230.304688 L 269.765625 352.910156 C 269.765625 355.371094 271.761719 357.367188 274.222656 357.367188 L 575.023438 357.367188 C 577.484375 357.367188 579.476562 355.371094 579.476562 352.910156 L 579.476562 230.304688 C 579.476562 227.84375 577.484375 225.847656 575.023438 225.847656 Z M 274.222656 225.847656 " fill-opacity="1" fill-rule="evenodd"/><path fill="#ffffff" d="M 267.539062 413.09375 C 267.539062 409.402344 270.53125 406.40625 274.222656 406.40625 L 575.023438 406.40625 C 578.714844 406.40625 581.710938 409.402344 581.710938 413.09375 L 581.710938 535.695312 C 581.710938 539.390625 578.714844 542.382812 575.023438 542.382812 L 274.222656 542.382812 C 270.53125 542.382812 267.539062 539.390625 267.539062 535.695312 Z M 267.539062 413.09375 " fill-opacity="1" fill-rule="nonzero"/><path fill="#95dacb" d="M 265.308594 413.09375 C 265.308594 408.171875 269.296875 404.179688 274.222656 404.179688 L 575.023438 404.179688 C 579.945312 404.179688 583.933594 408.171875 583.933594 413.09375 L 583.933594 535.695312 C 583.933594 540.621094 579.945312 544.613281 575.023438 544.613281 L 274.222656 544.613281 C 269.296875 544.613281 265.308594 540.621094 265.308594 535.695312 Z M 274.222656 408.636719 C 271.761719 408.636719 269.765625 410.632812 269.765625 413.09375 L 269.765625 535.695312 C 269.765625 538.160156 271.761719 540.15625 274.222656 540.15625 L 575.023438 540.15625 C 577.484375 540.15625 579.476562 538.160156 579.476562 535.695312 L 579.476562 413.09375 C 579.476562 410.632812 577.484375 408.636719 575.023438 408.636719 Z M 274.222656 408.636719 " fill-opacity="1" fill-rule="evenodd"/><path fill="#ffffff" d="M 267.539062 595.882812 C 267.539062 592.191406 270.53125 589.195312 274.222656 589.195312 L 575.023438 589.195312 C 578.714844 589.195312 581.710938 592.191406 581.710938 595.882812 L 581.710938 718.484375 C 581.710938 722.179688 578.714844 725.171875 575.023438 725.171875 L 274.222656 725.171875 C 270.53125 725.171875 267.539062 722.179688 267.539062 718.484375 Z M 267.539062 595.882812 " fill-opacity="1" fill-rule="nonzero"/><path fill="#95dacb" d="M 265.308594 595.882812 C 265.308594 590.960938 269.296875 586.96875 274.222656 586.96875 L 575.023438 586.96875 C 579.945312 586.96875 583.933594 590.960938 583.933594 595.882812 L 583.933594 718.484375 C 583.933594 723.410156 579.945312 727.402344 575.023438 727.402344 L 274.222656 727.402344 C 269.296875 727.402344 265.308594 723.410156 265.308594 718.484375 Z M 274.222656 591.425781 C 271.761719 591.425781 269.765625 593.421875 269.765625 595.882812 L 269.765625 718.484375 C 269.765625 720.949219 271.761719 722.945312 274.222656 722.945312 L 575.023438 722.945312 C 577.484375 722.945312 579.476562 720.949219 579.476562 718.484375 L 579.476562 595.882812 C 579.476562 593.421875 577.484375 591.425781 575.023438 591.425781 Z M 274.222656 591.425781 " fill-opacity="1" fill-rule="evenodd"/><path fill="#285598" d="M 305.414062 265.972656 C 305.414062 262.277344 308.40625 259.285156 312.097656 259.285156 L 365.574219 259.285156 C 369.265625 259.285156 372.257812 262.277344 372.257812 265.972656 L 372.257812 317.242188 C 372.257812 320.9375 369.265625 323.929688 365.574219 323.929688 L 312.097656 323.929688 C 308.40625 323.929688 305.414062 320.9375 305.414062 317.242188 Z M 305.414062 265.972656 " fill-opacity="1" fill-rule="nonzero"/><path fill="#285598" d="M 305.414062 631.550781 C 305.414062 627.855469 308.40625 624.863281 312.097656 624.863281 L 365.574219 624.863281 C 369.265625 624.863281 372.257812 627.855469 372.257812 631.550781 L 372.257812 682.820312 C 372.257812 686.511719 369.265625 689.507812 365.574219 689.507812 L 312.097656 689.507812 C 308.40625 689.507812 305.414062 686.511719 305.414062 682.820312 Z M 305.414062 631.550781 " fill-opacity="1" fill-rule="nonzero"/><path fill="#285598" d="M 303.1875 448.761719 C 303.1875 443.835938 307.179688 439.847656 312.101562 439.847656 L 365.574219 439.847656 C 370.5 439.847656 374.488281 443.835938 374.488281 448.761719 L 374.488281 500.03125 C 374.488281 504.957031 370.5 508.949219 365.574219 508.949219 L 312.101562 508.949219 C 307.179688 508.949219 303.1875 504.957031 303.1875 500.03125 Z M 312.101562 444.304688 C 309.640625 444.304688 307.644531 446.300781 307.644531 448.761719 L 307.644531 500.03125 C 307.644531 502.496094 309.640625 504.488281 312.101562 504.488281 L 365.574219 504.488281 C 368.039062 504.488281 370.03125 502.496094 370.03125 500.03125 L 370.03125 448.761719 C 370.03125 446.300781 368.039062 444.304688 365.574219 444.304688 Z M 312.101562 444.304688 " fill-opacity="1" fill-rule="evenodd"/><path fill="#ffffff" d="M 342.027344 151.539062 C 342.027344 157.691406 337.039062 162.679688 330.886719 162.679688 C 324.738281 162.679688 319.75 157.691406 319.75 151.539062 C 319.75 145.382812 324.738281 140.394531 330.886719 140.394531 C 337.039062 140.394531 342.027344 145.382812 342.027344 151.539062 Z M 342.027344 151.539062 " fill-opacity="1" fill-rule="nonzero"/><path fill="#fc9e19" d="M 407.910156 278.234375 C 407.910156 275.15625 410.402344 272.660156 413.480469 272.660156 L 536.027344 272.660156 C 539.105469 272.660156 541.597656 275.15625 541.597656 278.234375 C 541.597656 281.3125 539.105469 283.808594 536.027344 283.808594 L 413.480469 283.808594 C 410.402344 283.808594 407.910156 281.3125 407.910156 278.234375 Z M 407.910156 278.234375 " fill-opacity="1" fill-rule="nonzero"/><path fill="#fc9e19" d="M 407.910156 461.019531 C 407.910156 457.945312 410.402344 455.449219 413.480469 455.449219 L 536.027344 455.449219 C 539.105469 455.449219 541.597656 457.945312 541.597656 461.019531 C 541.597656 464.097656 539.105469 466.59375 536.027344 466.59375 L 413.480469 466.59375 C 410.402344 466.59375 407.910156 464.097656 407.910156 461.019531 Z M 407.910156 461.019531 " fill-opacity="1" fill-rule="nonzero"/><path fill="#fc9e19" d="M 407.910156 643.808594 C 407.910156 640.730469 410.402344 638.238281 413.480469 638.238281 L 536.027344 638.238281 C 539.105469 638.238281 541.597656 640.730469 541.597656 643.808594 C 541.597656 646.886719 539.105469 649.382812 536.027344 649.382812 L 413.480469 649.382812 C 410.402344 649.382812 407.910156 646.886719 407.910156 643.808594 Z M 407.910156 643.808594 " fill-opacity="1" fill-rule="nonzero"/><path fill="#95dacb" d="M 407.910156 304.980469 C 407.910156 301.90625 410.402344 299.410156 413.480469 299.410156 L 449.132812 299.410156 C 452.207031 299.410156 454.703125 301.90625 454.703125 304.980469 C 454.703125 308.0625 452.207031 310.554688 449.132812 310.554688 L 413.480469 310.554688 C 410.402344 310.554688 407.910156 308.0625 407.910156 304.980469 Z M 407.910156 304.980469 " fill-opacity="1" fill-rule="nonzero"/><path fill="#95dacb" d="M 407.910156 487.769531 C 407.910156 484.691406 410.402344 482.199219 413.480469 482.199219 L 493.695312 482.199219 C 496.769531 482.199219 499.265625 484.691406 499.265625 487.769531 C 499.265625 490.847656 496.769531 493.34375 493.695312 493.34375 L 413.480469 493.34375 C 410.402344 493.34375 407.910156 490.847656 407.910156 487.769531 Z M 407.910156 487.769531 " fill-opacity="1" fill-rule="nonzero"/><path fill="#95dacb" d="M 407.910156 670.558594 C 407.910156 667.480469 410.402344 664.988281 413.480469 664.988281 L 524.886719 664.988281 C 527.964844 664.988281 530.460938 667.480469 530.460938 670.558594 C 530.460938 673.636719 527.964844 676.132812 524.886719 676.132812 L 413.480469 676.132812 C 410.402344 676.132812 407.910156 673.636719 407.910156 670.558594 Z M 407.910156 670.558594 " fill-opacity="1" fill-rule="nonzero"/><path fill="#ffffff" d="M 363.519531 282.703125 L 331.886719 310.394531 L 317.386719 290.089844 L 324.640625 284.90625 L 333.417969 297.203125 L 357.648438 275.992188 Z M 363.519531 282.703125 " fill-opacity="1" fill-rule="evenodd"/><path fill="#ffffff" d="M 363.519531 648.28125 L 331.886719 675.972656 L 317.386719 655.664062 L 324.640625 650.484375 L 333.417969 662.78125 L 357.648438 641.570312 Z M 363.519531 648.28125 " fill-opacity="1" fill-rule="evenodd"/><path fill="#ffffff" d="M 649.355469 319.761719 C 650.128906 316.746094 653.195312 314.929688 656.210938 315.703125 L 788.785156 349.71875 C 791.796875 350.492188 793.613281 353.5625 792.839844 356.574219 L 764.097656 468.699219 C 763.324219 471.714844 760.257812 473.53125 757.246094 472.757812 L 624.671875 438.746094 C 621.65625 437.972656 619.839844 434.902344 620.613281 431.886719 Z M 649.355469 319.761719 " fill-opacity="1" fill-rule="nonzero"/><path fill="#285598" d="M 647.535156 319.296875 C 648.566406 315.277344 652.65625 312.855469 656.675781 313.882812 L 789.25 347.898438 C 793.265625 348.929688 795.6875 353.023438 794.65625 357.042969 L 765.914062 469.167969 C 764.882812 473.1875 760.792969 475.609375 756.777344 474.578125 L 624.203125 440.5625 C 620.183594 439.53125 617.765625 435.441406 618.792969 431.417969 Z M 655.742188 317.523438 C 653.734375 317.007812 651.6875 318.21875 651.171875 320.226562 L 622.429688 432.355469 C 621.914062 434.363281 623.125 436.410156 625.132812 436.925781 L 757.707031 470.9375 C 759.71875 471.453125 761.765625 470.242188 762.277344 468.234375 L 791.019531 356.109375 C 791.535156 354.097656 790.324219 352.054688 788.316406 351.539062 Z M 655.742188 317.523438 " fill-opacity="1" fill-rule="evenodd"/><path fill="#285598" d="M 648.261719 288.519531 C 649.03125 285.503906 652.101562 283.6875 655.113281 284.460938 L 804.769531 322.859375 C 807.785156 323.632812 809.601562 326.703125 808.824219 329.714844 L 801.113281 359.8125 C 800.339844 362.828125 797.269531 364.644531 794.257812 363.871094 L 644.601562 325.476562 C 641.589844 324.703125 639.773438 321.632812 640.542969 318.617188 Z M 648.261719 288.519531 " fill-opacity="1" fill-rule="nonzero"/><path fill="#95dacb" d="M 686.804688 280.195312 C 687.578125 277.179688 690.648438 275.363281 693.660156 276.136719 L 696.414062 276.84375 C 699.425781 277.617188 701.242188 280.6875 700.46875 283.703125 L 692.753906 313.800781 C 691.980469 316.816406 688.914062 318.632812 685.902344 317.855469 L 683.144531 317.152344 C 680.132812 316.378906 678.316406 313.308594 679.089844 310.292969 Z M 686.804688 280.195312 " fill-opacity="1" fill-rule="nonzero"/><path fill="#95dacb" d="M 765.378906 300.355469 C 766.152344 297.339844 769.222656 295.523438 772.234375 296.296875 L 774.988281 297.003906 C 778.003906 297.777344 779.816406 300.847656 779.046875 303.859375 L 771.328125 333.960938 C 770.558594 336.972656 767.488281 338.789062 764.476562 338.015625 L 761.71875 337.3125 C 758.707031 336.539062 756.890625 333.46875 757.664062 330.453125 Z M 765.378906 300.355469 " fill-opacity="1" fill-rule="nonzero"/><path fill="#fc9e19" d="M 681.003906 425.878906 L 666.074219 422.046875 L 678.375 374.058594 L 662.597656 374.621094 L 665.527344 363.203125 L 696.28125 360.589844 L 697.648438 360.941406 Z M 681.003906 425.878906 " fill-opacity="1" fill-rule="nonzero"/><path fill="#fc9e19" d="M 733.394531 439.320312 L 718.464844 435.492188 L 730.765625 387.5 L 714.992188 388.0625 L 717.917969 376.648438 L 748.671875 374.03125 L 750.042969 374.382812 Z M 733.394531 439.320312 " fill-opacity="1" fill-rule="nonzero"/><path fill="#ffffff" d="M 251.019531 417.894531 C 238.796875 441.273438 217.746094 479.734375 212.480469 489.566406 C 211.910156 490.632812 212.539062 491.914062 213.726562 492.140625 L 280.378906 504.839844 C 281.195312 504.996094 282.015625 504.578125 282.367188 503.828125 L 318.679688 426.921875 C 319.210938 425.796875 318.476562 424.476562 317.238281 424.335938 L 252.835938 416.945312 C 252.089844 416.855469 251.371094 417.226562 251.019531 417.894531 Z M 251.019531 417.894531 " fill-opacity="1" fill-rule="nonzero"/><path fill="#285598" d="M 252.625 418.75 C 243.851562 435.53125 230.523438 460.089844 221.761719 476.242188 C 218.335938 482.550781 215.609375 487.582031 214.117188 490.363281 L 280.71875 503.050781 L 317.027344 426.144531 Z M 249.40625 417.050781 C 250.109375 415.699219 251.5625 414.964844 253.042969 415.132812 L 317.441406 422.527344 C 319.921875 422.8125 321.386719 425.445312 320.320312 427.699219 L 284.011719 504.605469 C 283.304688 506.105469 281.667969 506.941406 280.039062 506.628906 L 213.382812 493.929688 C 211.015625 493.476562 209.710938 490.878906 210.875 488.707031 C 212.371094 485.914062 215.128906 480.828125 218.589844 474.445312 C 227.359375 458.289062 240.644531 433.804688 249.40625 417.050781 Z M 249.40625 417.050781 " fill-opacity="1" fill-rule="evenodd"/><path fill="#285598" d="M 293.816406 439.84375 L 260.292969 435.371094 L 260.773438 431.761719 L 294.296875 436.234375 Z M 288.230469 449.902344 L 254.707031 445.429688 L 255.1875 441.820312 L 288.710938 446.292969 Z M 288.230469 449.902344 " fill-opacity="1" fill-rule="evenodd"/><path fill="#efcb96" d="M 148.710938 385.179688 L 142.671875 416.582031 C 145.488281 419.804688 154.503906 426.488281 168.027344 427.453125 C 181.554688 428.421875 193.792969 422.21875 198.21875 419 L 194.597656 390.011719 C 215.125 379.140625 207.878906 338.078125 198.21875 323.582031 C 188.558594 309.089844 148.710938 306.671875 139.046875 340.492188 C 131.320312 367.546875 142.269531 381.554688 148.710938 385.179688 Z M 148.710938 385.179688 " fill-opacity="1" fill-rule="nonzero"/><path fill="#fc9e19" d="M 67.6875 439.558594 C 101.496094 404.777344 142.554688 405.742188 181.195312 405.742188 C 265.722656 405.742188 298.53125 470.453125 311.941406 491.691406 C 326.46875 522.988281 354.40625 590.054688 332.054688 613.527344 C 323.863281 622.128906 310.820312 629.175781 296.292969 625.820312 C 297.90625 665.679688 301.226562 717.597656 293.5 728.226562 C 283.839844 741.511719 272.96875 746.34375 212.59375 752.382812 C 159.1875 757.722656 67.996094 749.835938 42.628906 743.761719 C 32.214844 741.820312 31.976562 680.699219 33.160156 650.382812 C 1.914062 650.382812 0.492188 613.703125 3.6875 595.367188 C 4.894531 573.625 25.421875 483.039062 67.6875 439.558594 Z M 67.6875 439.558594 " fill-opacity="1" fill-rule="nonzero"/><path fill="#285598" d="M 47.363281 514.242188 C 39.785156 545.496094 34.738281 618.023438 33.160156 650.382812 L 26.058594 650.382812 C 30.792969 587.636719 41.050781 533.578125 47.363281 514.242188 Z M 47.363281 514.242188 " fill-opacity="1" fill-rule="nonzero"/><path fill="#285598" d="M 237.0625 587.816406 C 250.585938 601.34375 282.515625 618.976562 297.410156 625.820312 L 297.410156 641.472656 C 283.886719 636.640625 251.957031 603.921875 237.0625 587.816406 Z M 237.0625 587.816406 " fill-opacity="1" fill-rule="nonzero"/><path fill="#285598" d="M 144.679688 388.941406 C 149.414062 393.675781 168.742188 393.28125 180.183594 391.308594 C 186.101562 390.390625 190.839844 371.183594 187.289062 367.628906 C 173.085938 362.894531 179.003906 347.507812 184.917969 346.320312 C 190.839844 345.136719 190.839844 361.710938 193.207031 359.34375 C 195.574219 356.976562 194.390625 345.136719 196.757812 340.402344 C 199.125 335.667969 203.855469 332.117188 213.328125 328.5625 C 235.8125 320.128906 226.34375 287.742188 183.734375 290.679688 C 149.414062 293.050781 144.679688 313.175781 142.308594 313.175781 C 139.941406 313.175781 129.289062 316.726562 126.921875 335.667969 C 124.554688 354.609375 138.757812 383.019531 144.679688 388.941406 Z M 144.679688 388.941406 " fill-opacity="1" fill-rule="nonzero"/><path fill="#285598" d="M 2.382812 610.128906 C 11.851562 612.5 31.265625 623.863281 33.15625 650.382812 C 23.6875 651.171875 3.566406 649.199219 2.382812 610.128906 Z M 2.382812 610.128906 " fill-opacity="1" fill-rule="nonzero"/><path fill="#285598" d="M 340.992188 585.582031 C 306.128906 589.160156 290.707031 613.898438 286.234375 625.820312 C 292.941406 629.175781 308.585938 633.644531 326.464844 620.234375 C 340.769531 609.5 341.367188 592.660156 340.992188 585.582031 Z M 340.992188 585.582031 " fill-opacity="1" fill-rule="nonzero"/></svg>